<svg width="193" height="193" viewBox="0 0 193 193" fill="none" xmlns="http://www.w3.org/2000/svg">
<g filter="url(#filter0_d_6_12)">
<path d="M22.0427 80.8367C21.294 78.0432 21.2939 75.1019 22.0424 72.3084C22.7909 69.5149 24.2616 66.9676 26.3067 64.9227L68.9217 22.3077C70.9666 20.2626 73.5139 18.7919 76.3074 18.0434C79.1009 17.2949 82.0422 17.295 84.8357 18.0437L124.713 28.7287C125.128 23.2657 127.03 18.0203 130.213 13.5607L82.1837 0.692704C78.7363 -0.230921 75.1066 -0.230902 71.6593 0.692765C68.2119 1.61643 65.0684 3.43121 62.5447 5.95471L9.9547 58.5447C7.4312 61.0685 5.61643 64.2119 4.69277 67.6593C3.7691 71.1066 3.76908 74.7364 4.6927 78.1837L18.0557 128.055C22.4241 124.719 27.625 122.647 33.0907 122.066L22.0427 80.8367Z" fill="#E7ECF8"/>
</g>
<g filter="url(#filter1_d_6_12)">
<path d="M158.884 60.8977L170.301 103.505C171.05 106.299 171.049 109.24 170.301 112.033C169.552 114.827 168.081 117.374 166.036 119.419L123.421 162.035C121.376 164.08 118.829 165.55 116.035 166.299C113.242 167.047 110.3 167.047 107.507 166.299L66.2777 155.251C65.6968 160.717 63.6251 165.918 60.2887 170.286L110.16 183.649C113.607 184.573 117.237 184.573 120.684 183.649C124.132 182.725 127.275 180.911 129.799 178.387L182.389 125.797C184.913 123.273 186.727 120.13 187.651 116.682C188.575 113.235 188.575 109.605 187.651 106.158L173.784 54.4197C169.508 57.9098 164.352 60.1515 158.884 60.8977Z" fill="#E7ECF8"/>
</g>
<path d="M19.2547 134.933C15.8772 138.31 13.5771 142.614 12.6452 147.298C11.7134 151.983 12.1916 156.839 14.0195 161.252C15.8473 165.664 18.9427 169.436 22.9141 172.09C26.8856 174.743 31.5547 176.16 36.3312 176.16C41.1076 176.16 45.7768 174.743 49.7482 172.09C53.7197 169.436 56.8151 165.664 58.6429 161.252C60.4708 156.839 60.949 151.983 60.0171 147.298C59.0853 142.614 56.7852 138.31 53.4077 134.933C48.8752 130.411 42.7339 127.871 36.3312 127.871C29.9285 127.871 23.7872 130.411 19.2547 134.933Z" fill="#131E3F"/>
<path d="M137.684 14.0097C134.307 17.3871 132.006 21.6902 131.075 26.3749C130.143 31.0595 130.621 35.9153 132.449 40.3282C134.277 44.741 137.372 48.5128 141.343 51.1664C145.315 53.8201 149.984 55.2365 154.76 55.2365C159.537 55.2365 164.206 53.8201 168.178 51.1664C172.149 48.5128 175.244 44.741 177.072 40.3282C178.9 35.9153 179.378 31.0595 178.446 26.3749C177.515 21.6902 175.214 17.3871 171.837 14.0097C167.305 9.48739 161.163 6.94763 154.76 6.94763C148.358 6.94763 142.216 9.48739 137.684 14.0097Z" fill="#131E3F"/>
<path d="M110.347 156.187C109.377 156.187 108.412 156.06 107.475 155.809L69.7347 145.696C68.4763 138.976 65.2161 132.793 60.3818 127.959C55.5474 123.125 49.3647 119.864 42.6447 118.606L32.5327 80.8687C32.0314 78.9864 32.0328 77.0055 32.537 75.124C33.0412 73.2424 34.0304 71.5262 35.4057 70.1467L74.1417 31.4097C75.5196 30.0317 77.2359 29.0408 79.1182 28.5364C81.0006 28.0321 82.9825 28.0322 84.8647 28.5367L121.547 38.3657C123.002 45.0441 126.44 51.1273 131.411 55.8186C136.382 60.5098 142.654 63.5904 149.405 64.6567L159.805 103.479C160.306 105.362 160.305 107.343 159.8 109.224C159.296 111.106 158.307 112.822 156.931 114.202L118.195 152.938C117.167 153.971 115.943 154.791 114.596 155.348C113.249 155.906 111.805 156.191 110.347 156.187Z" fill="#131E3F"/>
<g filter="url(#filter2_d_6_12)">
<path d="M88.642 108.425C87.6895 107.951 86.8871 107.228 86.3155 106.331C85.7439 105.433 85.4233 104.392 85.3858 103.312L84.6042 80.8021C84.5666 79.7219 84.8135 78.6408 85.3202 77.6674C85.8268 76.694 86.5752 75.8626 87.4902 75.2569L100.551 66.6092C99.1667 65.1504 98.2198 63.3247 97.8132 61.3299L82.0823 71.7458C80.9532 72.4934 80.0296 73.5194 79.4045 74.7206C78.7793 75.9218 78.4745 77.256 78.5207 78.589L79.4853 106.368C79.5317 107.701 79.9274 108.986 80.6328 110.093C81.3381 111.201 82.3283 112.092 83.5037 112.678L100.508 121.147C100.709 119.093 101.468 117.114 102.7 115.426L88.642 108.425Z" fill="#E7ECF8"/>
</g>
<defs>
<filter id="filter0_d_6_12" x="0" y="0" width="134.213" height="136.055" filterUnits="userSpaceOnUse" color-interpolation-filters="sRGB">
<feFlood flood-opacity="0" result="BackgroundImageFix"/>
<feColorMatrix in="SourceAlpha" type="matrix" values="0 0 0 0 0 0 0 0 0 0 0 0 0 0 0 0 0 0 127 0" result="hardAlpha"/>
<feOffset dy="4"/>
<feGaussianBlur stdDeviation="2"/>
<feComposite in2="hardAlpha" operator="out"/>
<feColorMatrix type="matrix" values="0 0 0 0 0 0 0 0 0 0 0 0 0 0 0 0 0 0 0.25 0"/>
<feBlend mode="normal" in2="BackgroundImageFix" result="effect1_dropShadow_6_12"/>
<feBlend mode="normal" in="SourceGraphic" in2="effect1_dropShadow_6_12" result="shape"/>
</filter>
<filter id="filter1_d_6_12" x="56.2887" y="54.4197" width="136.055" height="137.922" filterUnits="userSpaceOnUse" color-interpolation-filters="sRGB">
<feFlood flood-opacity="0" result="BackgroundImageFix"/>
<feColorMatrix in="SourceAlpha" type="matrix" values="0 0 0 0 0 0 0 0 0 0 0 0 0 0 0 0 0 0 127 0" result="hardAlpha"/>
<feOffset dy="4"/>
<feGaussianBlur stdDeviation="2"/>
<feComposite in2="hardAlpha" operator="out"/>
<feColorMatrix type="matrix" values="0 0 0 0 0 0 0 0 0 0 0 0 0 0 0 0 0 0 0.25 0"/>
<feBlend mode="normal" in2="BackgroundImageFix" result="effect1_dropShadow_6_12"/>
<feBlend mode="normal" in="SourceGraphic" in2="effect1_dropShadow_6_12" result="shape"/>
</filter>
<filter id="filter2_d_6_12" x="74.5161" y="61.3299" width="32.1837" height="67.8169" filterUnits="userSpaceOnUse" color-interpolation-filters="sRGB">
<feFlood flood-opacity="0" result="BackgroundImageFix"/>
<feColorMatrix in="SourceAlpha" type="matrix" values="0 0 0 0 0 0 0 0 0 0 0 0 0 0 0 0 0 0 127 0" result="hardAlpha"/>
<feOffset dy="4"/>
<feGaussianBlur stdDeviation="2"/>
<feComposite in2="hardAlpha" operator="out"/>
<feColorMatrix type="matrix" values="0 0 0 0 0 0 0 0 0 0 0 0 0 0 0 0 0 0 0.25 0"/>
<feBlend mode="normal" in2="BackgroundImageFix" result="effect1_dropShadow_6_12"/>
<feBlend mode="normal" in="SourceGraphic" in2="effect1_dropShadow_6_12" result="shape"/>
</filter>
</defs>
</svg>
