<svg width="209" height="82" viewBox="0 0 209 82" fill="none" xmlns="http://www.w3.org/2000/svg">
<path d="M23.007 62.256C19.5937 62.256 16.543 61.488 13.855 59.952C11.2097 58.3733 9.119 56.2613 7.583 53.616C6.08967 50.928 5.343 47.8987 5.343 44.528C5.343 41.072 6.08967 38 7.583 35.312C9.07633 32.624 11.1243 30.5333 13.727 29.04C16.3297 27.504 19.3163 26.736 22.687 26.736C25.2043 26.736 27.5083 27.2267 29.599 28.208C31.6897 29.1467 33.567 30.576 35.231 32.496C35.8283 33.1787 36.0417 33.8827 35.871 34.608C35.7003 35.3333 35.231 35.9733 34.463 36.528C33.8657 36.9547 33.2043 37.104 32.479 36.976C31.7537 36.8053 31.0923 36.4213 30.495 35.824C28.4043 33.6053 25.8017 32.496 22.687 32.496C20.511 32.496 18.591 33.008 16.927 34.032C15.263 35.0133 13.9617 36.4 13.023 38.192C12.0843 39.984 11.615 42.096 11.615 44.528C11.615 46.832 12.0843 48.88 13.023 50.672C14.0043 52.464 15.3483 53.8933 17.055 54.96C18.7617 55.984 20.7457 56.496 23.007 56.496C24.5003 56.496 25.8017 56.3253 26.911 55.984C28.063 55.6 29.1083 55.024 30.047 54.256C30.7297 53.7013 31.4337 53.4027 32.159 53.36C32.8843 53.2747 33.5243 53.4667 34.079 53.936C34.8043 54.5333 35.2097 55.216 35.295 55.984C35.3803 56.7093 35.1243 57.3707 34.527 57.968C31.455 60.8267 27.615 62.256 23.007 62.256ZM61.4445 62.256C57.9885 62.256 54.9378 61.5093 52.2925 60.016C49.6472 58.48 47.5565 56.3893 46.0205 53.744C44.5272 51.056 43.7805 47.984 43.7805 44.528C43.7805 41.0293 44.5272 37.9573 46.0205 35.312C47.5565 32.624 49.6472 30.5333 52.2925 29.04C54.9378 27.504 57.9885 26.736 61.4445 26.736C64.8578 26.736 67.8872 27.504 70.5325 29.04C73.1778 30.5333 75.2472 32.624 76.7405 35.312C78.2765 37.9573 79.0445 41.0293 79.0445 44.528C79.0445 47.984 78.2978 51.056 76.8045 53.744C75.3112 56.3893 73.2418 58.48 70.5965 60.016C67.9512 61.5093 64.9005 62.256 61.4445 62.256ZM61.4445 56.496C63.6632 56.496 65.6258 55.984 67.3325 54.96C69.0392 53.936 70.3618 52.528 71.3005 50.736C72.2818 48.944 72.7725 46.8747 72.7725 44.528C72.7725 42.1813 72.2818 40.112 71.3005 38.32C70.3618 36.4853 69.0392 35.056 67.3325 34.032C65.6258 33.008 63.6632 32.496 61.4445 32.496C59.2258 32.496 57.2632 33.008 55.5565 34.032C53.8498 35.056 52.5058 36.4853 51.5245 38.32C50.5432 40.112 50.0525 42.1813 50.0525 44.528C50.0525 46.8747 50.5432 48.944 51.5245 50.736C52.5058 52.528 53.8498 53.936 55.5565 54.96C57.2632 55.984 59.2258 56.496 61.4445 56.496ZM97.08 62C95.2027 62 93.5387 61.488 92.088 60.464C90.6373 59.44 89.5067 58.0533 88.696 56.304C87.8853 54.512 87.48 52.464 87.48 50.16V15.216C87.48 14.2773 87.7787 13.5093 88.376 12.912C88.9733 12.3147 89.7413 12.016 90.68 12.016C91.6187 12.016 92.3867 12.3147 92.984 12.912C93.5813 13.5093 93.88 14.2773 93.88 15.216V50.16C93.88 51.7387 94.1787 53.04 94.776 54.064C95.3733 55.088 96.1413 55.6 97.08 55.6H98.68C99.5333 55.6 100.216 55.8987 100.728 56.496C101.283 57.0933 101.56 57.8613 101.56 58.8C101.56 59.7387 101.155 60.5067 100.344 61.104C99.5333 61.7013 98.488 62 97.208 62H97.08ZM116.268 62C114.39 62 112.726 61.488 111.276 60.464C109.825 59.44 108.694 58.0533 107.884 56.304C107.073 54.512 106.668 52.464 106.668 50.16V15.216C106.668 14.2773 106.966 13.5093 107.564 12.912C108.161 12.3147 108.929 12.016 109.868 12.016C110.806 12.016 111.574 12.3147 112.172 12.912C112.769 13.5093 113.068 14.2773 113.068 15.216V50.16C113.068 51.7387 113.366 53.04 113.964 54.064C114.561 55.088 115.329 55.6 116.268 55.6H117.868C118.721 55.6 119.404 55.8987 119.916 56.496C120.47 57.0933 120.748 57.8613 120.748 58.8C120.748 59.7387 120.342 60.5067 119.532 61.104C118.721 61.7013 117.676 62 116.396 62H116.268ZM139.79 62.256C136.675 62.256 133.88 61.488 131.406 59.952C128.931 58.3733 126.968 56.2613 125.518 53.616C124.11 50.928 123.406 47.8987 123.406 44.528C123.406 41.1573 124.174 38.128 125.71 35.44C127.288 32.752 129.4 30.64 132.046 29.104C134.734 27.5253 137.742 26.736 141.07 26.736C144.398 26.736 147.384 27.5253 150.03 29.104C152.675 30.64 154.766 32.752 156.302 35.44C157.88 38.128 158.67 41.1573 158.67 44.528H156.174C156.174 47.8987 155.448 50.928 153.998 53.616C152.59 56.2613 150.648 58.3733 148.174 59.952C145.699 61.488 142.904 62.256 139.79 62.256ZM141.07 56.496C143.246 56.496 145.187 55.984 146.894 54.96C148.6 53.8933 149.944 52.464 150.926 50.672C151.907 48.8373 152.398 46.7893 152.398 44.528C152.398 42.224 151.907 40.176 150.926 38.384C149.944 36.5493 148.6 35.12 146.894 34.096C145.187 33.0293 143.246 32.496 141.07 32.496C138.936 32.496 136.995 33.0293 135.246 34.096C133.539 35.12 132.174 36.5493 131.15 38.384C130.168 40.176 129.678 42.224 129.678 44.528C129.678 46.7893 130.168 48.8373 131.15 50.672C132.174 52.464 133.539 53.8933 135.246 54.96C136.995 55.984 138.936 56.496 141.07 56.496ZM155.406 62.064C154.467 62.064 153.678 61.7653 153.038 61.168C152.44 60.528 152.142 59.7387 152.142 58.8V49.008L153.358 42.224L158.67 44.528V58.8C158.67 59.7387 158.35 60.528 157.71 61.168C157.112 61.7653 156.344 62.064 155.406 62.064ZM185.985 62.256C182.657 62.256 179.67 61.488 177.025 59.952C174.38 58.3733 172.289 56.24 170.753 53.552C169.217 50.864 168.428 47.8347 168.385 44.464V15.28C168.385 14.2987 168.684 13.5093 169.281 12.912C169.921 12.3147 170.71 12.016 171.649 12.016C172.63 12.016 173.42 12.3147 174.017 12.912C174.614 13.5093 174.913 14.2987 174.913 15.28V32.56C176.406 30.768 178.198 29.36 180.289 28.336C182.422 27.2693 184.748 26.736 187.265 26.736C190.38 26.736 193.174 27.5253 195.649 29.104C198.124 30.64 200.065 32.752 201.473 35.44C202.924 38.0853 203.649 41.0933 203.649 44.464C203.649 47.8347 202.86 50.864 201.281 53.552C199.745 56.24 197.654 58.3733 195.009 59.952C192.364 61.488 189.356 62.256 185.985 62.256ZM185.985 56.496C188.161 56.496 190.102 55.984 191.809 54.96C193.516 53.8933 194.86 52.4427 195.841 50.608C196.865 48.7733 197.377 46.7253 197.377 44.464C197.377 42.16 196.865 40.112 195.841 38.32C194.86 36.528 193.516 35.12 191.809 34.096C190.102 33.0293 188.161 32.496 185.985 32.496C183.852 32.496 181.91 33.0293 180.161 34.096C178.454 35.12 177.11 36.528 176.129 38.32C175.148 40.112 174.657 42.16 174.657 44.464C174.657 46.7253 175.148 48.7733 176.129 50.608C177.11 52.4427 178.454 53.8933 180.161 54.96C181.91 55.984 183.852 56.496 185.985 56.496Z" fill="#131E3F"/>
<path d="M13.855 59.952L12.8301 61.6694C12.8409 61.6759 12.8518 61.6822 12.8627 61.6885L13.855 59.952ZM7.583 53.616L5.83469 54.5873C5.84083 54.5983 5.84707 54.6093 5.85342 54.6203L7.583 53.616ZM7.583 35.312L5.83469 34.3407L5.83469 34.3407L7.583 35.312ZM13.727 29.04L14.7223 30.7747C14.7294 30.7707 14.7365 30.7666 14.7435 30.7624L13.727 29.04ZM29.599 28.208L28.7492 30.0185C28.7594 30.0232 28.7696 30.0279 28.7798 30.0325L29.599 28.208ZM35.231 32.496L33.7196 33.8059L33.7258 33.813L35.231 32.496ZM35.871 34.608L33.9242 34.1499L33.9242 34.1499L35.871 34.608ZM34.463 36.528L35.6255 38.1555L35.634 38.1494L34.463 36.528ZM32.479 36.976L32.0209 38.9228C32.0575 38.9314 32.0944 38.939 32.1314 38.9456L32.479 36.976ZM30.495 35.824L29.0394 37.1956C29.053 37.21 29.0668 37.2242 29.0808 37.2382L30.495 35.824ZM16.927 34.032L17.943 35.7547C17.9538 35.7484 17.9645 35.7419 17.9752 35.7353L16.927 34.032ZM13.023 38.192L14.7947 39.12L14.7947 39.12L13.023 38.192ZM13.023 50.672L11.2513 51.6C11.2571 51.6109 11.2629 51.6218 11.2688 51.6326L13.023 50.672ZM17.055 54.96L15.995 56.656C16.0053 56.6624 16.0156 56.6687 16.026 56.675L17.055 54.96ZM26.911 55.984L27.4992 57.8956C27.514 57.891 27.5288 57.8863 27.5435 57.8814L26.911 55.984ZM30.047 54.256L28.7858 52.7038L28.7805 52.7081L30.047 54.256ZM32.159 53.36L32.2764 55.3565C32.3153 55.3543 32.354 55.3508 32.3927 55.3463L32.159 53.36ZM34.079 53.936L32.7871 55.4628C32.7939 55.4685 32.8007 55.4742 32.8076 55.4799L34.079 53.936ZM35.295 55.984L33.3072 56.2049L33.3087 56.2177L35.295 55.984ZM34.527 57.968L35.8895 59.4321C35.907 59.4158 35.9243 59.3992 35.9412 59.3822L34.527 57.968ZM23.007 60.256C19.9051 60.256 17.2028 59.5615 14.8473 58.2155L12.8627 61.6885C15.8832 63.4145 19.2822 64.256 23.007 64.256V60.256ZM14.8799 58.2346C12.524 56.8287 10.6768 54.9612 9.31258 52.6117L5.85342 54.6203C7.56121 57.5615 9.89529 59.918 12.8301 61.6694L14.8799 58.2346ZM9.33131 52.6447C8.01858 50.2818 7.343 47.5923 7.343 44.528H3.343C3.343 48.2051 4.16075 51.5742 5.83469 54.5873L9.33131 52.6447ZM7.343 44.528C7.343 41.369 8.02268 38.6388 9.33131 36.2833L5.83469 34.3407C4.15665 37.3612 3.343 40.775 3.343 44.528H7.343ZM9.33131 36.2833C10.6524 33.9053 12.4436 32.0822 14.7223 30.7747L12.7317 27.3053C9.80507 28.9845 7.50024 31.3427 5.83469 34.3407L9.33131 36.2833ZM14.7435 30.7624C17.0038 29.4285 19.6316 28.736 22.687 28.736V24.736C19.0011 24.736 15.6556 25.5795 12.7105 27.3176L14.7435 30.7624ZM22.687 28.736C24.9374 28.736 26.9477 29.1729 28.7492 30.0185L30.4488 26.3975C28.069 25.2805 25.4713 24.736 22.687 24.736V28.736ZM28.7798 30.0325C30.5774 30.8396 32.2253 32.0816 33.7196 33.8059L36.7424 31.1861C34.9087 29.0704 32.8019 27.4537 30.4182 26.3835L28.7798 30.0325ZM33.7258 33.813C33.8799 33.9891 33.9176 34.0916 33.925 34.116C33.9286 34.128 33.928 34.1305 33.9279 34.1277C33.9278 34.125 33.9286 34.131 33.9242 34.1499L37.8178 35.0661C38.1692 33.5727 37.6543 32.2282 36.7362 31.179L33.7258 33.813ZM33.9242 34.1499C33.891 34.2908 33.7788 34.5551 33.292 34.9066L35.634 38.1494C36.6832 37.3916 37.5096 36.3759 37.8178 35.0661L33.9242 34.1499ZM33.3005 34.9005C33.1419 35.0139 33.0251 35.0415 32.8266 35.0064L32.1314 38.9456C33.3836 39.1665 34.5895 38.8955 35.6255 38.1555L33.3005 34.9005ZM32.9371 35.0292C32.6204 34.9546 32.2796 34.7802 31.9092 34.4098L29.0808 37.2382C29.9051 38.0625 30.887 38.656 32.0209 38.9228L32.9371 35.0292ZM31.9506 34.4524C29.4728 31.8229 26.3392 30.496 22.687 30.496V34.496C25.2642 34.496 27.3358 35.3877 29.0394 37.1956L31.9506 34.4524ZM22.687 30.496C20.1842 30.496 17.893 31.0892 15.8788 32.3287L17.9752 35.7353C19.289 34.9268 20.8378 34.496 22.687 34.496V30.496ZM15.911 32.3093C13.9105 33.4891 12.3544 35.1582 11.2513 37.264L14.7947 39.12C15.569 37.6418 16.6155 36.5376 17.943 35.7547L15.911 32.3093ZM11.2513 37.264C10.1352 39.3947 9.615 41.8376 9.615 44.528H13.615C13.615 42.3544 14.0334 40.5733 14.7947 39.12L11.2513 37.264ZM9.615 44.528C9.615 47.1099 10.143 49.4841 11.2513 51.6L14.7947 49.744C14.0257 48.2759 13.615 46.5541 13.615 44.528H9.615ZM11.2688 51.6326C12.4121 53.7204 13.9932 55.4049 15.995 56.656L18.115 53.264C16.7035 52.3818 15.5966 51.2076 14.7772 49.7114L11.2688 51.6326ZM16.026 56.675C18.0841 57.9098 20.4336 58.496 23.007 58.496V54.496C21.0577 54.496 19.4393 54.0582 18.084 53.245L16.026 56.675ZM23.007 58.496C24.6457 58.496 26.1538 58.3095 27.4992 57.8956L26.3228 54.0724C25.4496 54.3411 24.355 54.496 23.007 54.496V58.496ZM27.5435 57.8814C28.926 57.4205 30.1862 56.7262 31.3135 55.8039L28.7805 52.7081C28.0304 53.3218 27.2 53.7795 26.2785 54.0866L27.5435 57.8814ZM31.3082 55.8082C31.7355 55.461 32.0512 55.3698 32.2764 55.3565L32.0416 51.3635C30.8161 51.4355 29.7239 51.9416 28.7858 52.7038L31.3082 55.8082ZM32.3927 55.3463C32.571 55.3253 32.6579 55.3534 32.7871 55.4628L35.3709 52.4092C34.3908 51.5799 33.1976 51.224 31.9253 51.3737L32.3927 55.3463ZM32.8076 55.4799C33.2232 55.8221 33.2913 56.0619 33.3072 56.2049L37.2828 55.7631C37.128 54.3701 36.3855 53.2446 35.3504 52.3921L32.8076 55.4799ZM33.3087 56.2177C33.3145 56.2667 33.3086 56.2846 33.3019 56.302C33.2917 56.3283 33.2517 56.4149 33.1128 56.5538L35.9412 59.3822C36.895 58.4285 37.4499 57.1833 37.2813 55.7503L33.3087 56.2177ZM33.1645 56.5039C30.5003 58.9831 27.1634 60.256 23.007 60.256V64.256C28.0666 64.256 32.4097 62.6703 35.8895 59.4321L33.1645 56.5039ZM52.2925 60.016L51.2882 61.7456C51.2952 61.7496 51.3023 61.7537 51.3093 61.7576L52.2925 60.016ZM46.0205 53.744L44.2722 54.7153C44.2783 54.7263 44.2846 54.7373 44.2909 54.7483L46.0205 53.744ZM46.0205 35.312L44.284 34.3197L44.2789 34.3288L46.0205 35.312ZM52.2925 29.04L53.2757 30.7816C53.2827 30.7777 53.2898 30.7736 53.2968 30.7696L52.2925 29.04ZM70.5325 29.04L69.5282 30.7696C69.5352 30.7736 69.5423 30.7777 69.5493 30.7816L70.5325 29.04ZM76.7405 35.312L74.9922 36.2833C74.9983 36.2943 75.0046 36.3053 75.0109 36.3163L76.7405 35.312ZM76.8045 53.744L78.5462 54.7272L78.5528 54.7153L76.8045 53.744ZM70.5965 60.016L71.5797 61.7576C71.5867 61.7537 71.5938 61.7496 71.6008 61.7456L70.5965 60.016ZM67.3325 54.96L66.3035 53.245L66.3035 53.245L67.3325 54.96ZM71.3005 50.736L69.5463 49.7754C69.5404 49.7862 69.5346 49.7971 69.5288 49.808L71.3005 50.736ZM71.3005 38.32L69.52 39.231C69.5285 39.2476 69.5373 39.2642 69.5463 39.2806L71.3005 38.32ZM67.3325 34.032L66.3035 35.747L66.3035 35.747L67.3325 34.032ZM55.5565 34.032L56.5855 35.747L56.5855 35.747L55.5565 34.032ZM51.5245 38.32L53.2787 39.2806C53.2818 39.2749 53.285 39.2691 53.2881 39.2633L51.5245 38.32ZM51.5245 50.736L53.2787 49.7754L53.2787 49.7754L51.5245 50.736ZM55.5565 54.96L54.5275 56.675L54.5275 56.675L55.5565 54.96ZM61.4445 60.256C58.2848 60.256 55.5817 59.5761 53.2757 58.2744L51.3093 61.7576C54.294 63.4425 57.6922 64.256 61.4445 64.256V60.256ZM53.2968 58.2864C50.9521 56.925 49.1115 55.0844 47.7501 52.7397L44.2909 54.7483C46.0015 57.6943 48.3422 60.035 51.2882 61.7456L53.2968 58.2864ZM47.7688 52.7727C46.4602 50.4172 45.7805 47.687 45.7805 44.528H41.7805C41.7805 48.281 42.5942 51.6948 44.2722 54.7153L47.7688 52.7727ZM45.7805 44.528C45.7805 41.321 46.4624 38.5976 47.7621 36.2952L44.2789 34.3288C42.5919 37.3171 41.7805 40.7377 41.7805 44.528H45.7805ZM47.757 36.3043C49.1177 33.9231 50.9507 32.0941 53.2757 30.7816L51.3093 27.2983C48.3436 28.9725 45.9953 31.3249 44.284 34.3197L47.757 36.3043ZM53.2968 30.7696C55.5991 29.4328 58.2946 28.736 61.4445 28.736V24.736C57.6825 24.736 54.2766 25.5752 51.2882 27.3104L53.2968 30.7696ZM61.4445 28.736C64.5469 28.736 67.2222 29.4306 69.5282 30.7696L71.5368 27.3104C68.5521 25.5774 65.1688 24.736 61.4445 24.736V28.736ZM69.5493 30.7816C71.8693 32.0913 73.6757 33.9135 74.9922 36.2833L78.4888 34.3407C76.8187 31.3345 74.4864 28.9753 71.5157 27.2983L69.5493 30.7816ZM75.0109 36.3163C76.3456 38.6149 77.0445 41.3306 77.0445 44.528H81.0445C81.0445 40.7281 80.2074 37.2998 78.4701 34.3077L75.0109 36.3163ZM77.0445 44.528C77.0445 47.687 76.3648 50.4172 75.0562 52.7727L78.5528 54.7153C80.2308 51.6948 81.0445 48.281 81.0445 44.528H77.0445ZM75.0629 52.7608C73.7458 55.0939 71.932 56.9279 69.5922 58.2864L71.6008 61.7456C74.5517 60.0321 76.8765 57.6848 78.5461 54.7272L75.0629 52.7608ZM69.6133 58.2744C67.3073 59.5761 64.6042 60.256 61.4445 60.256V64.256C65.1969 64.256 68.595 63.4425 71.5797 61.7576L69.6133 58.2744ZM61.4445 58.496C63.9829 58.496 66.3093 57.9063 68.3615 56.675L66.3035 53.245C64.9424 54.0617 63.3434 54.496 61.4445 54.496V58.496ZM68.3615 56.675C70.3887 55.4586 71.9659 53.776 73.0722 51.664L69.5288 49.808C68.7578 51.28 67.6896 52.4134 66.3035 53.245L68.3615 56.675ZM73.0547 51.6966C74.2199 49.5689 74.7725 47.1601 74.7725 44.528H70.7725C70.7725 46.5893 70.3438 48.3191 69.5463 49.7754L73.0547 51.6966ZM74.7725 44.528C74.7725 41.8959 74.2199 39.4871 73.0547 37.3594L69.5463 39.2806C70.3438 40.7369 70.7725 42.4667 70.7725 44.528H74.7725ZM73.081 37.409C71.9783 35.2538 70.4007 33.5405 68.3615 32.317L66.3035 35.747C67.6777 36.5715 68.7454 37.7169 69.52 39.231L73.081 37.409ZM68.3615 32.317C66.3093 31.0857 63.9829 30.496 61.4445 30.496V34.496C63.3434 34.496 64.9424 34.9303 66.3035 35.747L68.3615 32.317ZM61.4445 30.496C58.9061 30.496 56.5797 31.0857 54.5275 32.317L56.5855 35.747C57.9466 34.9303 59.5456 34.496 61.4445 34.496V30.496ZM54.5275 32.317C52.4963 33.5357 50.9048 35.2382 49.7609 37.3767L53.2881 39.2633C54.1069 37.7324 55.2033 36.5763 56.5855 35.747L54.5275 32.317ZM49.7703 37.3594C48.6051 39.4871 48.0525 41.8959 48.0525 44.528H52.0525C52.0525 42.4667 52.4812 40.7369 53.2787 39.2806L49.7703 37.3594ZM48.0525 44.528C48.0525 47.1601 48.6051 49.5689 49.7703 51.6966L53.2787 49.7754C52.4812 48.3191 52.0525 46.5893 52.0525 44.528H48.0525ZM49.7703 51.6966C50.9174 53.7913 52.5081 55.4633 54.5275 56.675L56.5855 53.245C55.1916 52.4087 54.0943 51.2647 53.2787 49.7754L49.7703 51.6966ZM54.5275 56.675C56.5797 57.9063 58.9061 58.496 61.4445 58.496V54.496C59.5456 54.496 57.9466 54.0617 56.5855 53.245L54.5275 56.675ZM92.088 60.464L90.9346 62.0979L90.9346 62.0979L92.088 60.464ZM88.696 56.304L86.8738 57.1283C86.8763 57.1339 86.8788 57.1394 86.8814 57.1449L88.696 56.304ZM88.376 12.912L89.7902 14.3262L89.7902 14.3262L88.376 12.912ZM94.776 54.064L96.5036 53.0563L96.5036 53.0563L94.776 54.064ZM100.728 56.496L99.2095 57.7976C99.2267 57.8177 99.2444 57.8375 99.2624 57.8569L100.728 56.496ZM100.344 61.104L101.53 62.7141L101.53 62.7141L100.344 61.104ZM97.08 60C95.5906 60 94.3347 59.6018 93.2414 58.8301L90.9346 62.0979C92.7426 63.3742 94.8147 64 97.08 64V60ZM93.2414 58.8301C92.101 58.0251 91.1871 56.9228 90.5106 55.4631L86.8814 57.1449C87.8262 59.1838 89.1737 60.8549 90.9346 62.0979L93.2414 58.8301ZM90.5182 55.4797C89.8431 53.9873 89.48 52.228 89.48 50.16H85.48C85.48 52.7 85.9276 55.0367 86.8738 57.1283L90.5182 55.4797ZM89.48 50.16V15.216H85.48V50.16H89.48ZM89.48 15.216C89.48 14.7432 89.6113 14.5051 89.7902 14.3262L86.9618 11.4978C85.946 12.5135 85.48 13.8115 85.48 15.216H89.48ZM89.7902 14.3262C89.9691 14.1473 90.2072 14.016 90.68 14.016V10.016C89.2755 10.016 87.9775 10.482 86.9618 11.4978L89.7902 14.3262ZM90.68 14.016C91.1528 14.016 91.3909 14.1473 91.5698 14.3262L94.3982 11.4978C93.3825 10.482 92.0845 10.016 90.68 10.016V14.016ZM91.5698 14.3262C91.7487 14.5051 91.88 14.7432 91.88 15.216H95.88C95.88 13.8115 95.414 12.5135 94.3982 11.4978L91.5698 14.3262ZM91.88 15.216V50.16H95.88V15.216H91.88ZM91.88 50.16C91.88 51.9791 92.223 53.6567 93.0484 55.0717L96.5036 53.0563C96.1343 52.4233 95.88 51.4983 95.88 50.16H91.88ZM93.0484 55.0717C93.895 56.523 95.2371 57.6 97.08 57.6V53.6C96.9984 53.6 96.959 53.585 96.9094 53.5519C96.8402 53.5058 96.691 53.3776 96.5036 53.0563L93.0484 55.0717ZM97.08 57.6H98.68V53.6H97.08V57.6ZM98.68 57.6C99.0054 57.6 99.1124 57.6843 99.2095 57.7976L102.247 55.1944C101.32 54.113 100.061 53.6 98.68 53.6V57.6ZM99.2624 57.8569C99.4216 58.0283 99.56 58.2842 99.56 58.8H103.56C103.56 57.4385 103.144 56.1584 102.194 55.1351L99.2624 57.8569ZM99.56 58.8C99.56 59.0511 99.5001 59.2415 99.1576 59.4939L101.53 62.7141C102.809 61.7718 103.56 60.4262 103.56 58.8H99.56ZM99.1576 59.4939C98.774 59.7766 98.1777 60 97.208 60V64C98.7983 64 100.293 63.6261 101.53 62.7141L99.1576 59.4939ZM97.208 60H97.08V64H97.208V60ZM111.276 60.464L110.122 62.0979L110.122 62.0979L111.276 60.464ZM107.884 56.304L106.061 57.1283C106.064 57.1339 106.066 57.1394 106.069 57.1449L107.884 56.304ZM107.564 12.912L108.978 14.3262L108.978 14.3262L107.564 12.912ZM113.964 54.064L115.691 53.0563L115.691 53.0563L113.964 54.064ZM119.916 56.496L118.397 57.7976C118.414 57.8177 118.432 57.8375 118.45 57.8569L119.916 56.496ZM119.532 61.104L120.718 62.7141L120.718 62.7141L119.532 61.104ZM116.268 60C114.778 60 113.522 59.6018 112.429 58.8301L110.122 62.0979C111.93 63.3742 114.002 64 116.268 64V60ZM112.429 58.8301C111.289 58.0251 110.375 56.9228 109.698 55.4631L106.069 57.1449C107.014 59.1838 108.361 60.8549 110.122 62.0979L112.429 58.8301ZM109.706 55.4797C109.031 53.9873 108.668 52.228 108.668 50.16H104.668C104.668 52.7 105.115 55.0367 106.061 57.1283L109.706 55.4797ZM108.668 50.16V15.216H104.668V50.16H108.668ZM108.668 15.216C108.668 14.7432 108.799 14.5051 108.978 14.3262L106.149 11.4978C105.134 12.5135 104.668 13.8115 104.668 15.216H108.668ZM108.978 14.3262C109.157 14.1473 109.395 14.016 109.868 14.016V10.016C108.463 10.016 107.165 10.482 106.149 11.4978L108.978 14.3262ZM109.868 14.016C110.34 14.016 110.578 14.1473 110.757 14.3262L113.586 11.4978C112.57 10.482 111.272 10.016 109.868 10.016V14.016ZM110.757 14.3262C110.936 14.5051 111.068 14.7432 111.068 15.216H115.068C115.068 13.8115 114.601 12.5135 113.586 11.4978L110.757 14.3262ZM111.068 15.216V50.16H115.068V15.216H111.068ZM111.068 50.16C111.068 51.9791 111.411 53.6567 112.236 55.0717L115.691 53.0563C115.322 52.4233 115.068 51.4983 115.068 50.16H111.068ZM112.236 55.0717C113.083 56.523 114.425 57.6 116.268 57.6V53.6C116.186 53.6 116.146 53.585 116.097 53.5519C116.028 53.5058 115.878 53.3776 115.691 53.0563L112.236 55.0717ZM116.268 57.6H117.868V53.6H116.268V57.6ZM117.868 57.6C118.193 57.6 118.3 57.6843 118.397 57.7976L121.434 55.1944C120.507 54.113 119.249 53.6 117.868 53.6V57.6ZM118.45 57.8569C118.609 58.0283 118.748 58.2842 118.748 58.8H122.748C122.748 57.4385 122.331 56.1584 121.381 55.1351L118.45 57.8569ZM118.748 58.8C118.748 59.0511 118.688 59.2415 118.345 59.4939L120.718 62.7141C121.997 61.7718 122.748 60.4262 122.748 58.8H118.748ZM118.345 59.4939C117.961 59.7766 117.365 60 116.396 60V64C117.986 64 119.48 63.6261 120.718 62.7141L118.345 59.4939ZM116.396 60H116.268V64H116.396V60ZM131.406 59.952L130.33 61.6381C130.337 61.6426 130.344 61.6469 130.351 61.6513L131.406 59.952ZM125.518 53.616L123.746 54.544C123.752 54.5553 123.758 54.5665 123.764 54.5777L125.518 53.616ZM125.71 35.44L123.985 34.4272C123.981 34.434 123.977 34.4408 123.973 34.4477L125.71 35.44ZM132.046 29.104L133.05 30.8336L133.058 30.8286L132.046 29.104ZM150.03 29.104L149.005 30.8214C149.011 30.8255 149.018 30.8296 149.025 30.8336L150.03 29.104ZM156.302 35.44L154.565 36.4323C154.569 36.4392 154.573 36.446 154.577 36.4528L156.302 35.44ZM158.67 44.528V46.528C159.774 46.528 160.67 45.6326 160.67 44.528H158.67ZM156.174 44.528V42.528C155.069 42.528 154.174 43.4234 154.174 44.528H156.174ZM153.998 53.616L152.237 52.6661L152.232 52.6763L153.998 53.616ZM148.174 59.952L149.228 61.6513C149.235 61.6469 149.242 61.6426 149.249 61.6381L148.174 59.952ZM146.894 54.96L147.922 56.675C147.933 56.6687 147.943 56.6624 147.953 56.656L146.894 54.96ZM150.926 50.672L152.68 51.6326C152.683 51.6269 152.686 51.6211 152.689 51.6153L150.926 50.672ZM150.926 38.384L149.162 39.3273C149.165 39.3331 149.168 39.3389 149.171 39.3446L150.926 38.384ZM146.894 34.096L145.834 35.792C145.844 35.7984 145.854 35.8047 145.865 35.811L146.894 34.096ZM135.246 34.096L136.274 35.811C136.279 35.8085 136.283 35.8061 136.287 35.8036L135.246 34.096ZM131.15 38.384L129.403 37.4093C129.4 37.414 129.398 37.4187 129.395 37.4234L131.15 38.384ZM131.15 50.672L129.386 51.6153C129.395 51.6318 129.404 51.6481 129.413 51.6643L131.15 50.672ZM135.246 54.96L134.186 56.656C134.202 56.6662 134.218 56.6763 134.235 56.686L135.246 54.96ZM153.038 61.168L151.575 62.5326C151.607 62.5662 151.639 62.5987 151.673 62.6301L153.038 61.168ZM152.142 49.008L150.173 48.6551C150.152 48.7716 150.142 48.8897 150.142 49.008H152.142ZM153.358 42.224L154.153 40.3892C153.593 40.1459 152.951 40.1725 152.413 40.4613C151.874 40.7501 151.497 41.2694 151.389 41.8711L153.358 42.224ZM158.67 44.528H160.67C160.67 43.7311 160.196 43.0103 159.465 42.6932L158.67 44.528ZM157.71 61.168L159.124 62.5822L159.124 62.5822L157.71 61.168ZM139.79 60.256C137.021 60.256 134.596 59.5784 132.46 58.2527L130.351 61.6513C133.164 63.3976 136.329 64.256 139.79 64.256V60.256ZM132.481 58.2659C130.298 56.8731 128.565 55.0136 127.271 52.6543L123.764 54.5777C125.371 57.5091 127.564 59.8736 130.33 61.6381L132.481 58.2659ZM127.289 52.688C126.047 50.3169 125.406 47.6118 125.406 44.528H121.406C121.406 48.1855 122.172 51.5391 123.746 54.544L127.289 52.688ZM125.406 44.528C125.406 41.4736 126.098 38.7916 127.446 36.4323L123.973 34.4477C122.249 37.4644 121.406 40.8411 121.406 44.528H125.406ZM127.434 36.4528C128.842 34.0559 130.708 32.1932 133.05 30.8336L131.041 27.3744C128.092 29.0868 125.735 31.4481 123.985 34.4272L127.434 36.4528ZM133.058 30.8286C135.418 29.4425 138.073 28.736 141.07 28.736V24.736C137.41 24.736 134.049 25.6082 131.033 27.3794L133.058 30.8286ZM141.07 28.736C144.067 28.736 146.694 29.4425 149.005 30.8214L151.054 27.3866C148.074 25.6082 144.728 24.736 141.07 24.736V28.736ZM149.025 30.8336C151.362 32.1904 153.202 34.0464 154.565 36.4323L158.038 34.4477C156.329 31.4576 153.988 29.0896 151.034 27.3744L149.025 30.8336ZM154.577 36.4528C155.961 38.809 156.67 41.4835 156.67 44.528H160.67C160.67 40.8311 159.8 37.447 158.026 34.4272L154.577 36.4528ZM158.67 42.528H156.174V46.528H158.67V42.528ZM154.174 44.528C154.174 47.6021 153.515 50.2993 152.237 52.6661L155.758 54.5659C157.382 51.5567 158.174 48.1953 158.174 44.528H154.174ZM152.232 52.6763C150.982 55.0242 149.276 56.8765 147.098 58.2659L149.249 61.6381C152.02 59.8702 154.197 57.4984 155.763 54.5557L152.232 52.6763ZM147.119 58.2527C144.983 59.5784 142.558 60.256 139.79 60.256V64.256C143.25 64.256 146.415 63.3976 149.228 61.6513L147.119 58.2527ZM141.07 58.496C143.573 58.496 145.876 57.9027 147.922 56.675L145.865 53.245C144.497 54.0653 142.918 54.496 141.07 54.496V58.496ZM147.953 56.656C149.955 55.4049 151.536 53.7204 152.68 51.6326L149.171 49.7114C148.352 51.2076 147.245 52.3818 145.834 53.264L147.953 56.656ZM152.689 51.6153C153.839 49.4657 154.398 47.0892 154.398 44.528H150.398C150.398 46.4895 149.975 48.209 149.162 49.7287L152.689 51.6153ZM154.398 44.528C154.398 41.9318 153.842 39.5458 152.68 37.4234L149.171 39.3446C149.972 40.8062 150.398 42.5162 150.398 44.528H154.398ZM152.689 37.4407C151.545 35.3022 149.954 33.5997 147.922 32.381L145.865 35.811C147.247 36.6403 148.343 37.7964 149.162 39.3273L152.689 37.4407ZM147.953 32.4C145.903 31.1185 143.589 30.496 141.07 30.496V34.496C142.902 34.496 144.471 34.9401 145.834 35.792L147.953 32.4ZM141.07 30.496C138.585 30.496 136.281 31.1224 134.204 32.3884L136.287 35.8036C137.709 34.9363 139.288 34.496 141.07 34.496V30.496ZM134.217 32.381C132.193 33.595 130.588 35.287 129.403 37.4093L132.896 39.3587C133.759 37.8116 134.884 36.645 136.274 35.811L134.217 32.381ZM129.395 37.4234C128.233 39.5458 127.678 41.9318 127.678 44.528H131.678C131.678 42.5162 132.103 40.8062 132.904 39.3446L129.395 37.4234ZM127.678 44.528C127.678 47.0892 128.236 49.4657 129.386 51.6153L132.913 49.7287C132.1 48.209 131.678 46.4895 131.678 44.528H127.678ZM129.413 51.6643C130.597 53.7355 132.191 55.4096 134.186 56.656L136.305 53.264C134.886 52.377 133.75 51.1925 132.886 49.6797L129.413 51.6643ZM134.235 56.686C136.307 57.899 138.6 58.496 141.07 58.496V54.496C139.272 54.496 137.682 54.069 136.256 53.234L134.235 56.686ZM155.406 60.064C154.933 60.064 154.644 59.9312 154.402 59.7059L151.673 62.6301C152.711 63.5995 154 64.064 155.406 64.064V60.064ZM154.5 59.8034C154.274 59.562 154.142 59.2721 154.142 58.8H150.142C150.142 60.2052 150.606 61.494 151.575 62.5326L154.5 59.8034ZM154.142 58.8V49.008H150.142V58.8H154.142ZM154.11 49.3609L155.326 42.5769L151.389 41.8711L150.173 48.6551L154.11 49.3609ZM152.562 44.0588L157.874 46.3628L159.465 42.6932L154.153 40.3892L152.562 44.0588ZM156.67 44.528V58.8H160.67V44.528H156.67ZM156.67 58.8C156.67 59.2302 156.545 59.5041 156.295 59.7538L159.124 62.5822C160.154 61.5519 160.67 60.2471 160.67 58.8H156.67ZM156.295 59.7538C156.116 59.9327 155.878 60.064 155.406 60.064V64.064C156.81 64.064 158.108 63.598 159.124 62.5822L156.295 59.7538ZM177.025 59.952L176 61.6694C176.007 61.6735 176.014 61.6776 176.021 61.6816L177.025 59.952ZM170.753 53.552L169.017 54.5443L169.017 54.5443L170.753 53.552ZM168.385 44.464H166.385C166.385 44.4724 166.385 44.4809 166.385 44.4893L168.385 44.464ZM169.281 12.912L167.916 11.4499C167.9 11.4656 167.883 11.4815 167.867 11.4978L169.281 12.912ZM174.913 32.56H172.913C172.913 33.402 173.44 34.1539 174.232 34.4405C175.024 34.7272 175.91 34.4872 176.449 33.8404L174.913 32.56ZM180.289 28.336L181.169 30.1321C181.174 30.1297 181.179 30.1273 181.183 30.1249L180.289 28.336ZM195.649 29.104L194.573 30.7901C194.58 30.7946 194.587 30.7989 194.594 30.8033L195.649 29.104ZM201.473 35.44L199.701 36.368C199.707 36.3793 199.713 36.3905 199.719 36.4017L201.473 35.44ZM201.281 53.552L199.556 52.5392C199.552 52.546 199.548 52.5528 199.545 52.5597L201.281 53.552ZM195.009 59.952L196.013 61.6816C196.02 61.6776 196.027 61.6735 196.034 61.6694L195.009 59.952ZM191.809 54.96L192.838 56.675C192.848 56.6687 192.859 56.6624 192.869 56.656L191.809 54.96ZM195.841 50.608L194.095 49.6333C194.089 49.6437 194.083 49.6542 194.077 49.6647L195.841 50.608ZM195.841 38.32L194.087 39.2806C194.093 39.2912 194.099 39.3018 194.105 39.3123L195.841 38.32ZM191.809 34.096L190.749 35.792C190.759 35.7984 190.77 35.8047 190.78 35.811L191.809 34.096ZM180.161 34.096L181.19 35.811C181.194 35.8085 181.198 35.8061 181.202 35.8036L180.161 34.096ZM176.129 38.32L177.883 39.2806L177.883 39.2806L176.129 38.32ZM176.129 50.608L174.365 51.5513L174.365 51.5513L176.129 50.608ZM180.161 54.96L179.101 56.656C179.117 56.6662 179.134 56.6763 179.151 56.686L180.161 54.96ZM185.985 60.256C182.978 60.256 180.343 59.5659 178.029 58.2224L176.021 61.6816C178.998 63.4101 182.336 64.256 185.985 64.256V60.256ZM178.05 58.2346C175.702 56.8333 173.856 54.9503 172.489 52.5597L169.017 54.5443C170.722 57.5297 173.058 59.9134 176 61.6694L178.05 58.2346ZM172.489 52.5597C171.137 50.1922 170.424 47.5009 170.385 44.4387L166.385 44.4893C166.432 48.1685 167.297 51.5358 169.017 54.5443L172.489 52.5597ZM170.385 44.464V15.28H166.385V44.464H170.385ZM170.385 15.28C170.385 14.7364 170.534 14.4876 170.695 14.3262L167.867 11.4978C166.834 12.531 166.385 13.861 166.385 15.28H170.385ZM170.646 14.3741C170.887 14.1488 171.177 14.016 171.649 14.016V10.016C170.244 10.016 168.955 10.4805 167.916 11.4499L170.646 14.3741ZM171.649 14.016C172.193 14.016 172.441 14.1648 172.603 14.3262L175.431 11.4978C174.398 10.4645 173.068 10.016 171.649 10.016V14.016ZM172.603 14.3262C172.764 14.4876 172.913 14.7364 172.913 15.28H176.913C176.913 13.861 176.464 12.531 175.431 11.4978L172.603 14.3262ZM172.913 15.28V32.56H176.913V15.28H172.913ZM176.449 33.8404C177.763 32.2641 179.331 31.0321 181.169 30.1321L179.409 26.5399C177.065 27.6879 175.05 29.2719 173.377 31.2796L176.449 33.8404ZM181.183 30.1249C183.024 29.2047 185.04 28.736 187.265 28.736V24.736C184.455 24.736 181.821 25.3339 179.395 26.5471L181.183 30.1249ZM187.265 28.736C190.023 28.736 192.44 29.4292 194.573 30.7901L196.725 27.4179C193.909 25.6215 190.736 24.736 187.265 24.736V28.736ZM194.594 30.8033C196.752 32.1428 198.452 33.9827 199.701 36.368L203.245 34.512C201.678 31.5213 199.495 29.1372 196.704 27.4047L194.594 30.8033ZM199.719 36.4017C200.99 38.719 201.649 41.3894 201.649 44.464H205.649C205.649 40.7973 204.857 37.4517 203.227 34.4783L199.719 36.4017ZM201.649 44.464C201.649 47.5085 200.94 50.183 199.556 52.5392L203.006 54.5648C204.779 51.545 205.649 48.1609 205.649 44.464H201.649ZM199.545 52.5597C198.178 54.9503 196.332 56.8333 193.984 58.2346L196.034 61.6694C198.976 59.9134 201.312 57.5297 203.017 54.5443L199.545 52.5597ZM194.005 58.2224C191.695 59.5636 189.04 60.256 185.985 60.256V64.256C189.671 64.256 193.032 63.4124 196.013 61.6816L194.005 58.2224ZM185.985 58.496C188.489 58.496 190.792 57.9027 192.838 56.675L190.78 53.245C189.413 54.0653 187.833 54.496 185.985 54.496V58.496ZM192.869 56.656C194.882 55.3978 196.464 53.6831 197.605 51.5513L194.077 49.6647C193.255 51.2022 192.149 52.3889 190.749 53.264L192.869 56.656ZM197.587 51.5827C198.79 49.4275 199.377 47.0397 199.377 44.464H195.377C195.377 46.4109 194.94 48.1191 194.095 49.6333L197.587 51.5827ZM199.377 44.464C199.377 41.8533 198.794 39.4559 197.577 37.3277L194.105 39.3123C194.936 40.7681 195.377 42.4667 195.377 44.464H199.377ZM197.595 37.3594C196.448 35.2647 194.857 33.5927 192.838 32.381L190.78 35.811C192.174 36.6473 193.271 37.7913 194.087 39.2806L197.595 37.3594ZM192.869 32.4C190.819 31.1185 188.504 30.496 185.985 30.496V34.496C187.818 34.496 189.386 34.9401 190.749 35.792L192.869 32.4ZM185.985 30.496C183.5 30.496 181.196 31.1224 179.12 32.3884L181.202 35.8036C182.625 34.9363 184.203 34.496 185.985 34.496V30.496ZM179.132 32.381C177.113 33.5927 175.522 35.2647 174.375 37.3594L177.883 39.2806C178.699 37.7913 179.796 36.6473 181.19 35.811L179.132 32.381ZM174.375 37.3594C173.213 39.4818 172.657 41.8678 172.657 44.464H176.657C176.657 42.4522 177.083 40.7422 177.883 39.2806L174.375 37.3594ZM172.657 44.464C172.657 47.0252 173.216 49.4017 174.365 51.5513L177.893 49.6647C177.08 48.145 176.657 46.4255 176.657 44.464H172.657ZM174.365 51.5513C175.506 53.6831 177.088 55.3978 179.101 56.656L181.221 53.264C179.821 52.3889 178.715 51.2022 177.893 49.6647L174.365 51.5513ZM179.151 56.686C181.223 57.899 183.516 58.496 185.985 58.496V54.496C184.187 54.496 182.598 54.069 181.171 53.234L179.151 56.686Z" fill="#131E3F"/>
</svg>
