<svg width="200" height="51" viewBox="0 0 200 51" fill="none" xmlns="http://www.w3.org/2000/svg">
<path d="M18.632 50.256C15.2187 50.256 12.168 49.488 9.48 47.952C6.83467 46.3733 4.744 44.2613 3.208 41.616C1.71467 38.928 0.968 35.8987 0.968 32.528C0.968 29.072 1.71467 26 3.208 23.312C4.70133 20.624 6.74933 18.5333 9.352 17.04C11.9547 15.504 14.9413 14.736 18.312 14.736C20.8293 14.736 23.1333 15.2267 25.224 16.208C27.3147 17.1467 29.192 18.576 30.856 20.496C31.4533 21.1787 31.6667 21.8827 31.496 22.608C31.3253 23.3333 30.856 23.9733 30.088 24.528C29.4907 24.9547 28.8293 25.104 28.104 24.976C27.3787 24.8053 26.7173 24.4213 26.12 23.824C24.0293 21.6053 21.4267 20.496 18.312 20.496C16.136 20.496 14.216 21.008 12.552 22.032C10.888 23.0133 9.58667 24.4 8.648 26.192C7.70933 27.984 7.24 30.096 7.24 32.528C7.24 34.832 7.70933 36.88 8.648 38.672C9.62933 40.464 10.9733 41.8933 12.68 42.96C14.3867 43.984 16.3707 44.496 18.632 44.496C20.1253 44.496 21.4267 44.3253 22.536 43.984C23.688 43.6 24.7333 43.024 25.672 42.256C26.3547 41.7013 27.0587 41.4027 27.784 41.36C28.5093 41.2747 29.1493 41.4667 29.704 41.936C30.4293 42.5333 30.8347 43.216 30.92 43.984C31.0053 44.7093 30.7493 45.3707 30.152 45.968C27.08 48.8267 23.24 50.256 18.632 50.256ZM57.0695 50.256C53.6135 50.256 50.5628 49.5093 47.9175 48.016C45.2722 46.48 43.1815 44.3893 41.6455 41.744C40.1522 39.056 39.4055 35.984 39.4055 32.528C39.4055 29.0293 40.1522 25.9573 41.6455 23.312C43.1815 20.624 45.2722 18.5333 47.9175 17.04C50.5628 15.504 53.6135 14.736 57.0695 14.736C60.4828 14.736 63.5122 15.504 66.1575 17.04C68.8028 18.5333 70.8722 20.624 72.3655 23.312C73.9015 25.9573 74.6695 29.0293 74.6695 32.528C74.6695 35.984 73.9228 39.056 72.4295 41.744C70.9362 44.3893 68.8668 46.48 66.2215 48.016C63.5762 49.5093 60.5255 50.256 57.0695 50.256ZM57.0695 44.496C59.2882 44.496 61.2508 43.984 62.9575 42.96C64.6642 41.936 65.9868 40.528 66.9255 38.736C67.9068 36.944 68.3975 34.8747 68.3975 32.528C68.3975 30.1813 67.9068 28.112 66.9255 26.32C65.9868 24.4853 64.6642 23.056 62.9575 22.032C61.2508 21.008 59.2882 20.496 57.0695 20.496C54.8508 20.496 52.8882 21.008 51.1815 22.032C49.4748 23.056 48.1308 24.4853 47.1495 26.32C46.1682 28.112 45.6775 30.1813 45.6775 32.528C45.6775 34.8747 46.1682 36.944 47.1495 38.736C48.1308 40.528 49.4748 41.936 51.1815 42.96C52.8882 43.984 54.8508 44.496 57.0695 44.496ZM92.705 50C90.8277 50 89.1637 49.488 87.713 48.464C86.2623 47.44 85.1317 46.0533 84.321 44.304C83.5103 42.512 83.105 40.464 83.105 38.16V3.216C83.105 2.27733 83.4037 1.50933 84.001 0.911999C84.5983 0.314665 85.3663 0.0159988 86.305 0.0159988C87.2437 0.0159988 88.0117 0.314665 88.609 0.911999C89.2063 1.50933 89.505 2.27733 89.505 3.216V38.16C89.505 39.7387 89.8037 41.04 90.401 42.064C90.9983 43.088 91.7663 43.6 92.705 43.6H94.305C95.1583 43.6 95.841 43.8987 96.353 44.496C96.9077 45.0933 97.185 45.8613 97.185 46.8C97.185 47.7387 96.7797 48.5067 95.969 49.104C95.1583 49.7013 94.113 50 92.833 50H92.705ZM111.893 50C110.015 50 108.351 49.488 106.901 48.464C105.45 47.44 104.319 46.0533 103.509 44.304C102.698 42.512 102.293 40.464 102.293 38.16V3.216C102.293 2.27733 102.591 1.50933 103.189 0.911999C103.786 0.314665 104.554 0.0159988 105.493 0.0159988C106.431 0.0159988 107.199 0.314665 107.797 0.911999C108.394 1.50933 108.693 2.27733 108.693 3.216V38.16C108.693 39.7387 108.991 41.04 109.589 42.064C110.186 43.088 110.954 43.6 111.893 43.6H113.493C114.346 43.6 115.029 43.8987 115.541 44.496C116.095 45.0933 116.373 45.8613 116.373 46.8C116.373 47.7387 115.967 48.5067 115.157 49.104C114.346 49.7013 113.301 50 112.021 50H111.893ZM135.415 50.256C132.3 50.256 129.505 49.488 127.031 47.952C124.556 46.3733 122.593 44.2613 121.143 41.616C119.735 38.928 119.031 35.8987 119.031 32.528C119.031 29.1573 119.799 26.128 121.335 23.44C122.913 20.752 125.025 18.64 127.671 17.104C130.359 15.5253 133.367 14.736 136.695 14.736C140.023 14.736 143.009 15.5253 145.655 17.104C148.3 18.64 150.391 20.752 151.927 23.44C153.505 26.128 154.295 29.1573 154.295 32.528H151.799C151.799 35.8987 151.073 38.928 149.623 41.616C148.215 44.2613 146.273 46.3733 143.799 47.952C141.324 49.488 138.529 50.256 135.415 50.256ZM136.695 44.496C138.871 44.496 140.812 43.984 142.519 42.96C144.225 41.8933 145.569 40.464 146.551 38.672C147.532 36.8373 148.023 34.7893 148.023 32.528C148.023 30.224 147.532 28.176 146.551 26.384C145.569 24.5493 144.225 23.12 142.519 22.096C140.812 21.0293 138.871 20.496 136.695 20.496C134.561 20.496 132.62 21.0293 130.871 22.096C129.164 23.12 127.799 24.5493 126.775 26.384C125.793 28.176 125.303 30.224 125.303 32.528C125.303 34.7893 125.793 36.8373 126.775 38.672C127.799 40.464 129.164 41.8933 130.871 42.96C132.62 43.984 134.561 44.496 136.695 44.496ZM151.031 50.064C150.092 50.064 149.303 49.7653 148.663 49.168C148.065 48.528 147.767 47.7387 147.767 46.8V37.008L148.983 30.224L154.295 32.528V46.8C154.295 47.7387 153.975 48.528 153.335 49.168C152.737 49.7653 151.969 50.064 151.031 50.064ZM181.61 50.256C178.282 50.256 175.295 49.488 172.65 47.952C170.005 46.3733 167.914 44.24 166.378 41.552C164.842 38.864 164.053 35.8347 164.01 32.464V3.28C164.01 2.29867 164.309 1.50933 164.906 0.911999C165.546 0.314665 166.335 0.0159988 167.274 0.0159988C168.255 0.0159988 169.045 0.314665 169.642 0.911999C170.239 1.50933 170.538 2.29867 170.538 3.28V20.56C172.031 18.768 173.823 17.36 175.914 16.336C178.047 15.2693 180.373 14.736 182.89 14.736C186.005 14.736 188.799 15.5253 191.274 17.104C193.749 18.64 195.69 20.752 197.098 23.44C198.549 26.0853 199.274 29.0933 199.274 32.464C199.274 35.8347 198.485 38.864 196.906 41.552C195.37 44.24 193.279 46.3733 190.634 47.952C187.989 49.488 184.981 50.256 181.61 50.256ZM181.61 44.496C183.786 44.496 185.727 43.984 187.434 42.96C189.141 41.8933 190.485 40.4427 191.466 38.608C192.49 36.7733 193.002 34.7253 193.002 32.464C193.002 30.16 192.49 28.112 191.466 26.32C190.485 24.528 189.141 23.12 187.434 22.096C185.727 21.0293 183.786 20.496 181.61 20.496C179.477 20.496 177.535 21.0293 175.786 22.096C174.079 23.12 172.735 24.528 171.754 26.32C170.773 28.112 170.282 30.16 170.282 32.464C170.282 34.7253 170.773 36.7733 171.754 38.608C172.735 40.4427 174.079 41.8933 175.786 42.96C177.535 43.984 179.477 44.496 181.61 44.496Z" fill="#131E3F"/>
</svg>
